<?xml version="1.0" encoding="UTF-8" standalone="no"?>
<svg
   xmlns:dc="http://purl.org/dc/elements/1.1/"
   xmlns:cc="http://creativecommons.org/ns#"
   xmlns:rdf="http://www.w3.org/1999/02/22-rdf-syntax-ns#"
   xmlns:svg="http://www.w3.org/2000/svg"
   xmlns="http://www.w3.org/2000/svg"
   viewBox="0 0 2666.6667 2666.6667"
   height="2666.6667"
   width="2666.6667"
   xml:space="preserve"
   id="svg2"
   version="1.1"><metadata
     id="metadata8"><rdf:RDF><cc:Work
         rdf:about=""><dc:format>image/svg+xml</dc:format><dc:type
           rdf:resource="http://purl.org/dc/dcmitype/StillImage" /></cc:Work></rdf:RDF></metadata><defs
     id="defs6" /><g
     transform="matrix(1.3333333,0,0,-1.3333333,0,2666.6667)"
     id="g10"><g
       transform="scale(0.1)"
       id="g12"><g
         transform="scale(1.22699)"
         id="g14"><path
           id="path16"
           style="fill:#ffffff;fill-opacity:0;fill-rule:nonzero;stroke:none"
           d="M 16300,0 H 0 V 16300 H 16300 V 0" /></g><g
         transform="scale(1.10993)"
         id="g18"><path
           id="path20"
           style="fill:#7e73bd;fill-opacity:1;fill-rule:nonzero;stroke:none"
           d="M 14202.7,16300 3907.78,15645.6 c -571.76,-36.2 -1009.35,-527.1 -974.63,-1094.1 L 3653.7,2690.07 c 16.82,-278.57 145.87,-526.07 340.72,-701.57 3.29,100.18 54.11,341.82 446.37,481.82 484.02,172.9 10025.81,762.57 10645.91,800.59 l -884,13029.09" /></g><path
         id="path22"
         style="fill:#eae7fe;fill-opacity:1;fill-rule:nonzero;stroke:none"
         d="m 9580.24,10612.9 c 137.96,-44.6 196.8,-6.9 265.37,36.5 40.58,26.4 82.78,53.2 150.14,69 155.85,36.5 196.75,18.3 306.35,-30 16.2,-7.3 33.7,-15 53.2,-23.2 108.7,-46.2 317.7,-71.4 437.4,-82.3 -293.8,-108 -611.1,-167.2 -942.22,-167.2 -205.31,0 -405.35,23.5 -598.09,66.5 83.58,121.8 144.45,190.7 327.85,130.7" /><path
         id="path24"
         style="fill:#eae7fe;fill-opacity:1;fill-rule:nonzero;stroke:none"
         d="m 10741.5,15654.9 c -185.8,-40.6 -280.3,-126.6 -364.7,-203.3 -37.4,-33.7 -72.3,-65.7 -112,-89.7 -67,-40.9 -131.5,-16.6 -220.8,17.1 -79.09,30 -178.1,67.4 -305.1,62.5 -119.3,-4.5 -226.01,-45.9 -329.48,-86 -127.01,-49.5 -247.11,-96.2 -374.93,-67 -165.95,37.3 -247.11,183.4 -286.47,253.2 -4.87,8.9 -9.33,17.1 -13.39,23.9 340.44,153 718.2,238.6 1115.85,238.6 312.02,0 611.92,-53.1 891.02,-149.3" /><path
         id="path26"
         style="fill:#cbc2fd;fill-opacity:1;fill-rule:nonzero;stroke:none"
         d="m 11750.3,14078.5 c -28.8,-8.1 -52.8,-12.6 -72.7,-12.6 -23.1,0 -40.9,6.1 -53.9,17.5 -30.1,27.2 -21.5,73 -14.6,114 l 2.4,12.6 c 10.5,62.5 164.3,178.5 228,172.4 24.4,-2.4 39.4,-20.2 38.6,-46.6 -0.8,-22.3 0.4,-43 1.2,-62.5 3.6,-83.2 6.9,-155.4 -129,-194.8 z M 9483.67,12434.4 c -41.79,-44.3 -123.76,-65 -205.31,-65 -58.03,0 -116.05,10.6 -159.47,30.1 -99,45.4 -95.76,113.6 -92.51,179.3 2.03,40.2 4.06,81.6 -14.61,123.8 -26.78,59.2 -17.85,122.1 24.75,168.4 45.85,50.3 120.11,66.9 188.68,43 3.25,-0.8 6.49,-2.8 8.52,-5.7 7.71,-8.5 184.62,-209.4 261.72,-353.4 23.53,-44.6 19.48,-87.3 -11.77,-120.5 z m -139.99,-767.7 c -58.02,-179.8 -91.29,-250 -126.59,-324.2 -30.84,-65.4 -62.9,-132.7 -114.02,-282 -73.85,-214.7 -119.3,-282.5 -213.03,-282.5 -44.63,0 -100.22,15.1 -174.88,37.4 l -21.51,6.1 c -49.91,15 -103.87,25.1 -155.81,35.3 -196.8,37.7 -400.08,76.3 -436.6,360.3 -20.29,158.2 30.43,265.3 70.6,351.8 51.13,108.3 84.4,179.7 -21.91,299 -91.3,102.7 -159.06,120.5 -213.84,134.7 -73.85,19.1 -120.92,38.6 -151.75,183.8 -55.19,263 -12.18,345.8 124.57,515.4 41.79,51.5 60.05,93.7 76.68,131 34.09,77.5 58.84,133.5 251.58,179.4 311.62,74.2 411.44,-0.8 536.42,-249.2 36.92,-72.6 60.86,-130.2 81.96,-180.9 47.88,-115.3 85.62,-206.2 243.86,-400.5 75.88,-93.3 140.4,-141.6 187.06,-176.5 103.88,-77.9 130.66,-110.8 57.21,-338.4 z m 2521.82,3249.7 c 8.5,-24.7 13.4,-50.3 12.2,-75.5 -1.6,-38.5 -17.5,-71.4 -47.1,-96.9 -125.8,-110 -196,-221.2 -289.7,-458.1 -77.5,-196.8 -176.5,-220.8 -290.5,-248.8 -37,-8.9 -74.7,-18.2 -114.5,-33.6 -161.5,-64.2 -340.4,-323.4 -381.4,-495.5 -19.9,-84.4 -99.8,-155.8 -213.4,-191.1 -19.5,-6.1 -39,-10.5 -58.4,-13.8 -28,-5.3 -55.6,-7.7 -82.8,-7.7 -93.3,0 -179.8,28.8 -239.8,83.2 -91.3,82.3 -269.04,155 -441.08,225.6 -137.15,56 -266.59,109.1 -341.25,163.1 -103.47,75.5 -91.7,202.5 -80.34,325.4 8.11,88.5 16.63,179.8 -13.8,258.1 -77.5,196.8 -147.29,422.4 3.25,605.4 149.32,182.6 305.94,169.6 565.23,148.5 139.58,-11.8 253.59,-84 345.29,-142 81.2,-51.5 145.3,-92.5 187.9,-67 52.3,31.3 58,71.4 66.9,133.1 6.9,50.3 16.3,113.6 57.2,185.1 85.3,147.7 303.6,297 534,316.4 -73.4,35.8 -148.5,67.8 -225.2,97 -221.5,-30.8 -323.8,-123.7 -414.3,-205.7 -38.5,-35.3 -75,-68.2 -117.6,-94.5 -84,-51.2 -164,-21.1 -256.5,14.2 -79.91,30 -170.39,64.1 -289.28,59.6 -112.4,-4 -216.27,-44.6 -316.49,-83.2 -103.47,-40.5 -202.89,-79.1 -307.98,-79.1 -29.62,0 -59.65,3.2 -90.48,10.1 -183.41,41.8 -271.05,198.1 -312.85,273.5 -5.27,9.4 -10.95,19.9 -15.42,26.8 -216.27,-101 -417.12,-229.2 -597.69,-380.2 -12.57,-17 -33.67,-57.6 -1.62,-118.1 14.2,-26.8 70.2,-15.4 135.12,-2.4 105.09,21.5 249.55,50.7 354.64,-58.4 112.39,-116.1 93.32,-172.9 52.75,-256.1 -19.07,-39.7 -40.99,-84.4 -47.07,-150.1 -7.71,-83.2 9.33,-112 29.62,-145.3 25.97,-43 55.99,-92.1 43.42,-244.2 -11.77,-146.9 -43.02,-211.8 -73.45,-274.7 -26.37,-54.4 -53.56,-110.4 -68.57,-225.2 -15.83,-119.7 20.29,-155.4 58.83,-193.6 38.55,-38.5 78.72,-77.9 61.27,-188.3 -8.52,-54.7 -29.62,-92.5 -64.11,-115.2 -68.98,-45 -174.47,-17.8 -286.06,10.6 -40.17,10.1 -81.96,20.6 -121.73,28 -192.33,34.4 -341.65,6.9 -533.58,-98.6 -65.73,-36.2 -124.16,-51.6 -179.34,-51.6 -109.56,0 -206.54,60.1 -324.62,134.3 -1.62,-36.5 -2.84,-73 -2.84,-109.9 0,-1267.2 887,-2332 2077.92,-2618 88.86,131 164.74,230.4 382.63,159.4 119.7,-38.9 166.37,-8.9 230.88,32.5 41.8,26.4 88.86,56.8 163.12,73.9 168.78,39.3 219.88,17 331.88,-32.5 15.9,-6.9 33.3,-14.6 52.4,-22.7 137.1,-58.5 458.5,-82.8 507.6,-86.5 188.3,76.7 366.4,174.1 531.1,288.5 -6.9,4.9 -13.8,10.2 -20.7,15.9 -40.5,32.4 -108.7,87.2 -265.7,126.6 -226.9,57.2 -241.1,114 -279.6,265.7 -10.6,41.4 -22.3,88.1 -40.6,145.3 -45,139.6 -126.6,185 -239.4,247.5 -95.7,53.2 -215,119.3 -346.9,265.4 -210.2,232.1 -180.6,298.2 -93.7,425.6 28.8,41.8 61.6,89.7 90,156.7 26.4,62 48.3,109.5 66.2,147.6 57.2,121.4 74.2,158.3 74.2,334.8 0,136.5 42.1,187.9 106,209.4 l 32.8,8.5 c 27.2,5.3 57.6,7.3 89.3,9.7 30.4,2.1 61.6,4.5 95.3,9.4 102.3,15 120.1,-24.4 134.3,-82 5.7,-22.7 11.8,-46.2 27.6,-69 31.7,-45 121.3,-5.2 200.5,29.7 29.6,12.9 57.2,25.5 82.7,33.6 61.7,20.7 224.4,50.4 402.6,-112.4 49.5,-45.4 73,-85.2 91.7,-117.2 36.5,-62.1 58.8,-99.4 244.2,-127 305.2,-45.5 273.5,-273.5 240.2,-515 l -2.4,-17.4 c -15,-108.3 -56.4,-193.1 -96.6,-275.5 -51.9,-107.1 -101,-208.2 -77.1,-344.1 28.4,-159.9 -131.4,-406.2 -269,-578.6 559.6,493.8 913,1212.8 913,2012.2 0,694.2 -266.2,1328 -703.2,1806.4" /><path
         id="path28"
         style="fill:#fcec81;fill-opacity:1;fill-rule:nonzero;stroke:none"
         d="m 9262.13,11972.6 c 89.67,-67.3 110.77,-83.2 43.01,-293.4 -57.22,-177.3 -90.08,-246.3 -124.57,-319.3 -31.65,-66.1 -63.71,-134.7 -116.05,-286.5 -99.82,-289.7 -122.14,-283.2 -338,-219.1 l -21.1,6.1 c -52.34,15.4 -107.12,26 -160.28,36.1 -198.82,38.2 -370.87,71 -403.33,325.4 -19.07,146.9 26.78,243.9 66.95,329.9 51.54,109.6 95.76,204.1 -28.4,343.3 -99.82,112 -177.32,131.9 -233.72,146.9 -61.67,15.8 -95.35,24.8 -122.54,152.6 -53.56,254.8 -11.77,323 116.45,481.6 45.04,56 65.33,102.7 81.97,140.4 32.87,74.3 50.72,114.8 223.98,156.2 289.72,69 372.49,6.9 490.97,-228 36.12,-71.4 59.65,-128.2 80.75,-178.1 49.1,-118.5 87.65,-211.9 249.95,-410.7 79.12,-97 145.67,-147.3 193.96,-183.4" /><path
         id="path30"
         style="fill:#fcec81;fill-opacity:1;fill-rule:nonzero;stroke:none"
         d="m 10683.1,13232.5 c 73.9,11 77.9,-6.1 88.9,-51.5 6.1,-24 13.4,-54 33.6,-82.8 51.2,-71.8 157.1,-25.2 250.4,16.2 28.4,12.6 55.2,24.4 78.7,32.1 54.8,18.2 200.5,44.6 362.8,-103.9 45,-41 65.7,-76.3 84,-107.5 43.8,-74.3 77.9,-118.1 273,-146.9 265.4,-39.4 239.4,-228.9 206.2,-469.1 l -2.5,-17.4 c -14.2,-101.9 -53.9,-184.2 -92.9,-263.4 -54.8,-113.2 -107.1,-219.9 -80.3,-369.2 38.9,-219.5 -342.9,-652.9 -422.4,-727.1 -5.7,-3.7 -11,-7.3 -16.3,-11.4 -4.4,0.4 -11.7,5.3 -31.6,21.5 -40.6,32.5 -115.6,92.9 -281.2,134.3 -203.7,51.2 -213.4,90.5 -250.4,236.6 -10.1,39.8 -22.7,89.3 -41.3,147.7 -49.9,155 -142.1,205.7 -258.1,270.2 -93.3,52 -209.4,116.5 -336.8,257.3 -197.6,218.3 -165.9,264.1 -90.1,375.3 28.4,41.4 63.7,93.3 93.8,163.9 25.9,61.3 47.8,108.4 65.7,146.1 58.4,124.6 77.9,166.8 77.9,352.2 0,173.7 63.7,178.1 190.3,187.1 29.6,2 63.3,4.4 98.6,9.7" /><path
         id="path32"
         style="fill:#88fcc5;fill-opacity:1;fill-rule:nonzero;stroke:none"
         d="m 7137.14,13266.2 c 42.61,734.4 383.04,1390.5 903.64,1851.9 -1.22,-25.2 4.46,-54.4 21.5,-86.4 28.41,-53.6 98.2,-39.4 178.95,-23.2 101.44,20.7 227.63,46.3 317.3,-46.6 98.2,-101.5 79.53,-140.4 45.45,-210.6 -19.48,-40.2 -44.23,-90.5 -51.13,-163.5 -8.92,-97 13.8,-133.9 35.3,-170.1 24.35,-40.1 49.1,-81.1 38.15,-220.3 -11.37,-139.2 -39.77,-198 -69.8,-260.1 -27.99,-57.2 -56.4,-116.4 -72.22,-237.8 -18.67,-139.5 28.81,-186.2 70.2,-227.6 35.7,-35.3 64.11,-63.3 49.9,-153 -6.89,-43 -21.91,-71.4 -46.25,-87.6 -53.97,-35.3 -150.95,-10.6 -254.01,15.8 -40.58,10.2 -82.78,21.1 -124.16,28.4 -202.48,36.9 -359.51,7.7 -560.36,-102.6 -176.92,-97.4 -285.66,-29.7 -465.41,82.7 l -17.05,10.6" /><path
         id="path34"
         style="fill:#88fcc5;fill-opacity:1;fill-rule:nonzero;stroke:none"
         d="m 11744.6,15039.8 c 28.8,-34.1 96.2,-122.2 92.5,-196.8 -1.2,-27.6 -12.2,-49.9 -33.3,-68.6 -129.4,-113.2 -205.3,-232.9 -300.6,-473.9 -69.8,-176.9 -155,-197.6 -262.6,-224 -38.1,-8.9 -77.1,-18.7 -119.7,-35.3 -174.9,-69.4 -361.9,-338.4 -405.7,-523.8 -16.7,-70.2 -86.5,-130.7 -186.3,-161.5 -128.2,-39.8 -262.5,-19.1 -341.6,52.7 -96.2,87.3 -277.58,161.5 -453.27,232.9 -134.71,55.2 -261.72,107.5 -332.32,158.7 -85.21,61.6 -75.47,167.1 -64.11,288.5 8.92,93.3 17.85,189.9 -16.23,276.7 -73.04,186.2 -139.59,398.9 -3.25,565.2 135.93,166 267.8,155 530.74,133.5 129.44,-10.5 239.04,-79.9 326.64,-135.9 92.9,-58.8 166.4,-105.5 230.9,-67.4 68.6,41 76.7,97 86,162.3 6.9,49.5 15,105.9 52.3,170.5 88.9,154.2 334,310.8 575.4,297.8 229.7,-120.9 439.9,-273.5 624.5,-451.6" /><path
         id="path36"
         style="fill:#88fcc5;fill-opacity:1;fill-rule:nonzero;stroke:none"
         d="m 11788,14326.9 c 26.8,13.8 41.8,15.8 47.1,15.8 0.8,0 1.6,0 1.6,-0.4 0,0 0.8,-1.2 0.8,-5.3 0,-5.3 -0.4,-11 -0.4,-16.2 0,-17.5 0.8,-33.7 1.6,-49.1 3.7,-82.4 5.3,-123.8 -99.8,-154.2 -60.9,-17.5 -81.1,-9.8 -88,-3.7 -13.4,11.8 -6.9,47.5 -1.7,76.3 l 2.1,13 c 4.4,26 71.4,90.5 136.7,123.8" /><path
         id="path38"
         style="fill:#88fcc5;fill-opacity:1;fill-rule:nonzero;stroke:none"
         d="m 9206.94,12877.5 c 25.97,-29.7 183.81,-212.7 252.39,-341.7 15.42,-29.2 13.79,-53.1 -5.28,-73.4 -53.96,-57.2 -220.33,-70.6 -318.12,-26 -74.25,34.1 -72.22,76.3 -68.98,140.8 2.03,42.6 4.47,90.9 -18.26,142 -20.28,44.7 -13.79,90.1 17.45,124.2 24.35,26.8 59.24,41 96.57,41 14.61,0 29.62,-2.5 44.23,-6.9" /><path
         id="path40"
         style="fill:#88fcc5;fill-opacity:1;fill-rule:nonzero;stroke:none"
         d="m 6085,10885.2 c -142.02,122.1 -437.01,390.3 -641.11,668.3 -188.27,256.4 -99.81,727.9 -55.59,910.5 140.4,-521.8 551.44,-1309.4 696.7,-1578.8" /><path
         id="path42"
         style="fill:#88fcc5;fill-opacity:1;fill-rule:nonzero;stroke:none"
         d="m 5420.36,12502.1 c 140.8,-89.6 594.44,-400.5 658.96,-719.8 69.79,-347.3 64.11,-748.6 58.02,-908.9 -128.22,236.6 -580.24,1090.7 -716.98,1628.7" /><path
         id="path44"
         style="fill:#88fcc5;fill-opacity:1;fill-rule:nonzero;stroke:none"
         d="m 5996.54,10077.3 c 368.84,19.1 724.7,-202.5 859.82,-297.8 -176.51,16.6 -621.63,56.8 -796.52,54.7 -181.78,-2.4 -653.28,-58 -814.36,-77.5 87.23,88.9 336.78,300.3 751.06,320.6" /><path
         id="path46"
         style="fill:#88fcc5;fill-opacity:1;fill-rule:nonzero;stroke:none"
         d="m 6060.65,9793.7 c 175.29,2 639.08,-40.2 804.63,-55.6 -130.25,-78.3 -492.59,-276.8 -833.03,-295.8 -330.29,-18.3 -669.51,193.9 -784.75,273.9 157.44,19 634.62,75 813.15,77.5" /><path
         id="path48"
         style="fill:#88fcc5;fill-opacity:1;fill-rule:nonzero;stroke:none"
         d="m 7621.63,10011.2 c 32.86,-167.6 156.21,-577 211.8,-757.6 -112.39,129 -347.33,427.3 -422.4,735.2 -73.84,301.9 57.62,650.5 120.92,793.3 15.83,-174.1 56.81,-604.2 89.68,-770.9" /><path
         id="path50"
         style="fill:#88fcc5;fill-opacity:1;fill-rule:nonzero;stroke:none"
         d="m 7661.39,10019.3 c -34.49,174.8 -79.12,659.7 -92.11,801.4 94.54,-60.5 367.22,-266.6 465.82,-682.9 88.86,-374.6 -86.43,-781.1 -150.54,-912.2 -46.26,150.1 -188.27,616.3 -223.17,793.7" /><path
         id="path52"
         style="fill:#88fcc5;fill-opacity:1;fill-rule:nonzero;stroke:none"
         d="m 12274.1,9434.6 c -64.1,130.6 -239.4,537.6 -150.9,911.7 99,416.3 371.2,622.5 465.8,682.9 -12.6,-141.2 -57.2,-626.5 -91.7,-801.4 -34.9,-176.9 -176.9,-643.1 -223.2,-793.2" /><path
         id="path54"
         style="fill:#88fcc5;fill-opacity:1;fill-rule:nonzero;stroke:none"
         d="m 12325.2,9462.2 c 55.2,180.5 179,590.3 211.8,757.9 32.9,166.8 73.5,596.9 89.3,771 63.7,-142.9 194.8,-491.4 121.3,-793.7 -75,-308 -310.4,-606.2 -422.4,-735.2" /><path
         id="path56"
         style="fill:#88fcc5;fill-opacity:1;fill-rule:nonzero;stroke:none"
         d="m 14098,10002.6 c 178.5,-2.4 655.7,-58.8 812.8,-77.9 -114.9,-79.5 -454.9,-292.1 -784.4,-273.5 -340.8,18.7 -702.8,217.5 -833,295.4 161.1,15.5 605.8,56 790.4,56 4.9,0 9.7,0 14.2,0" /><path
         id="path58"
         style="fill:#88fcc5;fill-opacity:1;fill-rule:nonzero;stroke:none"
         d="m 14912.8,9965.7 c -161.1,19.5 -632.6,75.1 -814.4,77.5 -174.5,2 -619.6,-38.1 -796.1,-54.8 135.1,95.4 489.8,316.1 859.8,297.9 413.5,-20.7 663.4,-232.1 750.7,-320.6" /><path
         id="path60"
         style="fill:#88fcc5;fill-opacity:1;fill-rule:nonzero;stroke:none"
         d="m 14073.7,11094.1 c 145.2,269.5 556.3,1057.1 696.3,1578.9 44.6,-182.6 133,-654.1 -55.2,-911 -204.1,-277.5 -499.5,-545.7 -641.1,-667.9" /><path
         id="path62"
         style="fill:#88fcc5;fill-opacity:1;fill-rule:nonzero;stroke:none"
         d="m 14020.9,11082 c -5.7,160.2 -11.3,561.9 58.4,909.3 64.2,318.9 518.2,629.7 659,719.4 -136.7,-538 -588.8,-1391.8 -717.4,-1628.7" /><g
         transform="scale(1.02599)"
         id="g64"><path
           id="path66"
           style="fill:#fff7ca;fill-opacity:1;fill-rule:nonzero;stroke:none"
           d="m 9895.97,2793.1 c 10.62,0.78 19,10.23 18.13,20.95 -0.78,11.02 -10.24,18.91 -20.96,18.52 l -4241.52,-296.2 c -11.07,-0.78 -19.38,-10.23 -18.58,-20.95 0.78,-10.63 9.49,-18.62 19.77,-18.62 0.39,0 0.79,0 1.58,0 z m 1597.33,-447.37 c 10.7,0.87 19,10.33 18.2,20.95 -0.4,11.11 -9.1,19.01 -20.6,18.62 L 8720.97,2219.6 c -11.07,-0.78 -19.38,-10.23 -18.59,-20.95 0.79,-10.72 9.5,-18.61 19.78,-18.61 0.39,0 0.79,0 1.18,0 z m 382.4,269.78 c 10.7,0.78 19,10.24 18.2,21.35 -0.7,10.62 -11.1,19.01 -20.9,18.23 L 9680.02,2500.8 c -10.68,-0.78 -18.99,-10.24 -18.2,-20.96 0.79,-10.72 9.5,-18.62 19.78,-18.62 0.39,0 0.79,0 1.19,0 z m -562.8,282.75 c 0,0 799.7,51.37 1746.9,112.29 10.6,0.78 19,10.32 18.6,20.95 -0.8,11.11 -11.1,19.01 -21.4,18.61 -947.2,-60.91 -1746.4,-112.27 -1746.4,-112.27 -11.1,-0.78 -19,-10.34 -18.6,-20.96 0.8,-10.72 9.5,-18.62 19.8,-18.62 0.4,0 0.7,0 1.1,0 z m 4779.9,312.87 c -41.5,-83.53 -71.3,-174.86 -68.8,-264.23 l -2613,-183.53 c -10.7,-0.78 -19,-10.24 -18.2,-21.34 0.8,-10.24 9.5,-18.14 19.8,-18.14 0.3,0 0.7,0 1.1,0 l 2612.6,183.83 c 10,-84.22 41.1,-168.42 80.3,-245.52 l -3262.4,-195.81 c -10.6,-0.39 -18.9,-9.84 -18.5,-20.96 0.8,-10.33 9.5,-18.61 19.8,-18.61 0.4,0 0.8,0.39 1.2,0.39 l 3280.1,196.59 c 61.3,-110.72 134,-202.15 173.2,-247.96 L 5131.96,1859.76 c -274.46,-12.28 -531.92,75.14 -736,229.73 l 1504.43,105.55 c 11.07,0.88 19.37,10.33 18.59,21.45 -0.8,10.62 -9.9,19.3 -21.36,18.12 L 4360.37,2126.72 c -5.14,72.71 8.31,348.34 457.18,508.58 505.83,180.7 10672.15,812.28 11475.75,862.09 -43.5,-48.25 -119.4,-139.18 -179.9,-247.56 -61.7,-4.78 -440.6,-30.41 -1787.3,-117.84 -10.6,-0.39 -18.9,-9.85 -18.1,-20.96 0.8,-10.33 9,-18.22 19.8,-18.22 0.4,0 0.7,0 1.1,0 1274.7,82.26 1650.7,106.82 1763.9,118.32" /></g><path
         id="path68"
         style="fill:#000000;fill-opacity:1;fill-rule:nonzero;stroke:none"
         d="m 15077.5,7327 -509.2,-30.8 c -0.4,0 -0.8,0 -1.2,0 -10.6,0 -19.5,8.1 -20.3,19.1 -0.8,11.3 7.7,20.7 19.1,21.5 l 1064.3,64.1 c 12.1,0.4 20.7,-7.7 21.1,-19.1 0.8,-11.4 -7.7,-20.7 -18.7,-21.5 l -515.3,-30.8 c 5.7,-147.3 73.8,-1182.4 101,-1592.7 0.8,-11.3 -7.7,-21.1 -18.6,-21.5 -0.9,-0.4 -1.3,-0.4 -1.7,-0.4 -10.5,0 -19.4,8.6 -20.3,19.1 -62,936.9 -95.7,1470.9 -100.2,1593" /><path
         id="path70"
         style="fill:#000000;fill-opacity:1;fill-rule:nonzero;stroke:none"
         d="m 13725.1,6447.3 c -172.8,-31.6 -332.3,-34.5 -390.7,-34.1 l 51.5,-787.1 c 0.8,-11 -7.7,-20.7 -18.7,-21.5 -0.4,0 -0.8,0 -1.6,0 -10.5,0 -19.5,8.1 -19.9,19 l -106.3,1611.7 c -0.8,10.6 7.3,20.3 18.3,21.5 27.6,2.9 682.9,67 936.1,-144 59.6,-49.9 92.5,-111.2 98.2,-183 8.5,-105.9 -24,-198 -95.8,-273.5 -101,-106.7 -266.2,-166.8 -426.5,-200.4 l 589.2,-759.6 c 6.9,-9 5.3,-21.5 -3.6,-28.4 -3.7,-2.9 -8.1,-4.5 -12.2,-4.5 -6.1,0 -12.2,2.8 -16.2,8.1 z m -392,6.5 c 108.8,0 626.5,11.8 833.9,230.1 63.3,67.3 92.1,148.9 84.4,242.6 -4.5,61.3 -32.1,112 -83.6,155 -216.7,181 -775,145.7 -886.6,136.4 l 50.3,-764.1 c 0.4,0 1.2,0 1.6,0" /><path
         id="path72"
         style="fill:#000000;fill-opacity:1;fill-rule:nonzero;stroke:none"
         d="m 14162.1,10286.3 c -370,18.2 -724.7,-202.5 -859.8,-297.9 176.5,16.7 621.6,56.8 796.1,54.8 181.8,-2.4 653.3,-58 814.4,-77.5 -87.3,88.5 -337.2,299.9 -750.7,320.6 z m -78.3,-283.7 c -184.6,0 -629.3,-40.5 -790.4,-56 130.2,-77.9 492.2,-276.7 833,-295.4 329.5,-18.6 669.5,194 784.4,273.5 -157.1,19.1 -634.3,75.5 -812.8,77.9 -4.5,0 -9.3,0 -14.2,0 z m -865.1,-25.9 c 18.7,15.4 462.2,374.1 945,350.1 270.7,-13.4 472.4,-103.8 607.5,-192.7 135.1,-88.5 204.1,-175.7 209.8,-183 0,-0.4 0,-0.4 0.4,-0.8 1.2,-1.6 2.4,-4.1 2.8,-6.1 0.8,-2.4 0.8,-4.5 0.8,-6.9 0,-0.4 0,-0.8 0,-1.2 -0.4,-2.4 -1.2,-4.9 -2.4,-7.3 -0.4,-0.4 -0.8,-0.4 -0.8,-0.8 -1.3,-2.1 -2.5,-3.7 -4.1,-4.9 -0.4,0 -0.4,-0.4 -0.4,-0.4 -17,-13.4 -406.2,-313.3 -809.5,-313.3 -14.6,0 -29.2,0.5 -43.8,1.3 -433.8,23.9 -884.6,320.9 -903.7,333.5 0,0.4 -0.4,0.4 -0.4,0.8 -2,1.2 -4,3.3 -5.2,5.7 -0.4,0 -0.4,0.4 -0.8,0.4 -1.3,2.4 -2.1,5.3 -2.5,8.1 v 0.4 c 0,0.4 0,0.4 0,0.4 0,0.8 0.4,1.6 0.4,2.1 0,2.4 0.4,4.4 1.2,6.4 0.4,0.9 0.9,1.7 1.3,2.5 1.2,1.6 2,3.2 3.6,4.4 0.4,0.5 0.4,1.3 0.8,1.3" /><path
         id="path74"
         style="fill:#000000;fill-opacity:1;fill-rule:nonzero;stroke:none"
         d="m 12260.7,9371.7 c -14.6,25.5 -286.9,519.8 -176.9,984.4 124.2,523 515.7,727.1 519.8,728.7 0.4,0.4 1.2,0.4 1.6,0.8 1.2,0.4 2.4,0.4 3.7,0.8 1.2,0.4 2.8,0.4 4,0.4 0.4,0 1.2,0.4 1.6,0.4 0.9,0 1.3,-0.4 2.1,-0.8 1.2,0 2.8,-0.4 4,-1.2 1.2,-0.4 2.1,-0.8 3.3,-1.6 1.2,-0.8 2,-1.6 2.8,-2.4 1.2,-0.9 2,-2.1 2.4,-3.3 0.5,-0.4 1.3,-0.8 1.7,-1.6 10.5,-19.5 254.8,-484.5 156.2,-888.2 -102.3,-418.8 -478,-805.1 -493.8,-821.3 -0.4,-0.4 -1.2,-0.8 -2.1,-1.2 -0.4,-0.4 -1.2,-0.8 -2,-1.6 -3.2,-1.7 -6.5,-3.3 -10.5,-3.3 -0.8,0 -1.7,0 -2.5,0 -0.4,0.4 -0.8,0.4 -1.2,0.4 -0.8,0.4 -1.6,0.4 -2.4,0.4 -1.2,0.4 -2,1.2 -2.9,2.1 -1.2,0.4 -2,0.8 -2.8,1.2 -2,1.6 -3.6,3.2 -4.9,5.2 0,0.5 -0.8,0.5 -0.8,0.9 0,0.4 -0.4,0.4 -0.4,0.8 z m -137.5,974.6 c -88.5,-374.1 86.8,-781.1 150.9,-911.7 46.3,150.1 188.3,616.3 223.2,793.2 34.5,174.9 79.1,660.2 91.7,801.4 -94.6,-60.4 -366.8,-266.6 -465.8,-682.9 z m 202,-884.1 c 112,129 347.4,427.2 422.4,735.2 73.5,302.3 -57.6,650.8 -121.3,793.7 -15.8,-174.1 -56.4,-604.2 -89.3,-771 -32.8,-167.6 -156.6,-577.4 -211.8,-757.9" /><path
         id="path76"
         style="fill:#000000;fill-opacity:1;fill-rule:nonzero;stroke:none"
         d="m 11929.6,6647.8 c -9.3,146.5 37.7,285.6 131.5,391.5 90.9,102.7 218.3,164 358.7,172.5 289.3,17.4 513.3,-193.6 532.3,-502.3 l 36.1,-588.4 c 9.8,-156.2 -36.9,-301.1 -131,-407.4 -85.6,-96.6 -201.7,-151.7 -335.6,-159.9 -10.9,-0.8 -21.9,-1.2 -32.8,-1.2 -278.4,0 -505.6,216.7 -523.1,506.8 z m 161.9,364.8 c -86.8,-97.8 -129.8,-226.5 -121.7,-362.4 l 36.1,-588.3 c 17,-278.8 243,-484.1 513.3,-467.9 122.9,7.7 229.2,58.4 307.6,146.5 86.8,98.6 129.8,232.5 120.9,378.2 l -36.1,588.3 c -16.7,274.3 -207.8,465.4 -459,465.4 -10.1,0 -20.2,-0.4 -30.4,-1.2 -129.4,-7.7 -247.1,-64.1 -330.7,-158.6" /><path
         id="path78"
         style="fill:#000000;fill-opacity:1;fill-rule:nonzero;stroke:none"
         d="m 11611.5,14210 c 10.5,62.5 164.3,178.5 228,172.4 24.4,-2.4 39.4,-20.2 38.6,-46.6 -0.8,-22.3 0.4,-43 1.2,-62.5 3.7,-83.2 6.9,-155.4 -129,-194.8 -28.8,-8.1 -52.8,-12.6 -72.7,-12.6 -23.1,0 -40.9,6.1 -53.9,17.5 -30.1,27.2 -21.5,73 -14.6,114 z m 223.6,132.7 c -5.3,0 -20.3,-2 -47.1,-15.8 -65.3,-33.3 -132.3,-97.8 -136.7,-123.8 l -2.1,-13 c -5.2,-28.8 -11.7,-64.5 1.7,-76.3 6.9,-6.1 27.1,-13.8 88,3.7 105.1,30.4 103.5,71.8 99.8,154.2 -0.8,15.4 -1.6,31.6 -1.6,49.1 0,5.2 0.4,10.9 0.4,16.2 0,4.1 -0.8,5.3 -0.8,5.3 0,0.4 -0.8,0.4 -1.6,0.4" /><path
         id="path80"
         style="fill:#000000;fill-opacity:1;fill-rule:nonzero;stroke:none"
         d="m 11604.6,3014.2 c 0,0 820,52.7 1791.8,115.2 10.6,0.4 21.1,-7.7 22,-19.1 0.4,-10.9 -8.2,-20.7 -19.1,-21.5 -971.8,-62.5 -1792.3,-115.2 -1792.3,-115.2 -0.4,0 -0.8,0 -1.2,0 -10.5,0 -19.5,8.1 -20.3,19.1 -0.4,10.9 7.7,20.7 19.1,21.5" /><path
         id="path82"
         style="fill:#000000;fill-opacity:1;fill-rule:nonzero;stroke:none"
         d="m 13099,9877.2 c -1049.7,-891.8 -1959.8,-968.5 -1969.1,-969.3 -0.5,0 -0.9,0 -1.7,0 -10.1,0 -19,8.1 -19.9,18.6 -0.8,11.4 7.4,21.1 18.7,22 8.9,0.4 906.9,77.1 1945.6,959.6 644.8,548.2 887.5,1053.3 911,1104.9 -3.3,56 -29.6,560.8 56,986.4 79.1,394 693.8,756.7 719.8,772.2 0.4,0.4 1.2,0.4 2,0.8 1.7,0.8 3.7,1.2 5.7,1.6 1.2,0 2,0 3.3,0 1.2,0 2.4,0 3.6,0 0.8,-0.4 1.2,-0.8 1.6,-0.8 0.4,0 0.8,0 1.3,0 0.8,-0.4 1.2,-1.2 2,-1.2 1.6,-0.8 2.8,-2.1 4,-3.3 0.9,-0.8 1.7,-1.2 2.5,-2 0.8,-1.6 2,-3.3 2.4,-4.9 0.4,-0.8 0.8,-1.2 1.2,-1.6 8.5,-28 206.2,-684.5 -41.4,-1022.1 -265.3,-361.2 -682.5,-705.6 -727.1,-741.8 -24.7,-53.9 -271,-566.4 -921.5,-1119.1 z m 921.9,1204.8 c 128.6,236.9 580.7,1090.7 717.4,1628.7 -140.8,-89.7 -594.8,-400.5 -659,-719.4 -69.7,-347.4 -64.1,-749.1 -58.4,-909.3 z m 52.8,12.1 c 141.6,122.2 437,390.4 641.1,667.9 188.2,256.9 99.8,728.4 55.2,911 -140,-521.8 -551.1,-1309.4 -696.3,-1578.9" /><path
         id="path84"
         style="fill:#000000;fill-opacity:1;fill-rule:nonzero;stroke:none"
         d="M 10655.9,5461.3 10550,7073 c -0.8,11 7.3,20.3 18.3,21.5 27.6,2.9 682.9,67.4 936.1,-144 59.6,-49.5 92.5,-111.2 98.2,-182.6 8.1,-105.9 -24,-198 -95.8,-273.9 -216.7,-228 -726.7,-243.1 -855.3,-243.1 -2.5,0 -4.5,0 -6.9,0 l 51.9,-786.7 c 0.8,-11.4 -7.7,-21.1 -18.7,-21.5 -0.4,0 -1.2,0 -1.6,0 -10.5,0 -19.5,8.1 -20.3,18.6 z m -64.1,1594.7 50.3,-764.1 c 106.3,-0.8 626.9,10.6 835.1,230.1 63.7,66.9 92.1,148.5 84.8,242.6 -4.9,61.3 -32.1,111.6 -83.6,155 -217.1,180.6 -775.4,145.3 -886.6,136.4" /><path
         id="path86"
         style="fill:#000000;fill-opacity:1;fill-rule:nonzero;stroke:none"
         d="m 9931.64,2565.8 2249.96,158.3 c 10.1,0.8 20.7,-7.8 21.5,-18.7 0.8,-11.4 -7.7,-21.1 -18.7,-21.9 L 9934.48,2525.2 c -0.41,0 -0.82,0 -1.22,0 -10.55,0 -19.48,8.1 -20.29,19.1 -0.81,11 7.71,20.7 18.67,21.5" /><path
         id="path88"
         style="fill:#000000;fill-opacity:1;fill-rule:nonzero;stroke:none"
         d="m 9306.76,6667.3 c 17.04,174 152.57,359.5 417.12,381.8 6.09,0.4 12.18,0.8 18.26,1.2 236.56,14.6 361.16,-70.6 424.06,-144.9 70.2,-82.7 97.8,-193.9 73.8,-297.4 -2.4,-10.9 -13.4,-17.8 -24.3,-15.4 -11,2.4 -17.9,13.4 -15,24.3 20.7,91.3 -3.7,189.5 -65.4,262.2 -56.8,67.3 -170.8,144 -390.72,130.6 -5.68,-0.4 -11.36,-0.8 -17.04,-1.2 -241.84,-19.9 -365.19,-187.9 -380.2,-345.3 -13.39,-138.8 54.37,-324.6 290.12,-391.6 l 325.42,-91.7 c 159.82,-45 278.72,-165.9 310.82,-316.1 28.8,-134.3 -17,-263.7 -125.8,-355.4 -83.6,-69.8 -185.83,-109.2 -304.32,-116.1 -12.98,-0.8 -25.96,-1.2 -38.14,-1.2 -292.96,0 -441.87,210.6 -515.72,391.6 -4.47,10.1 0.81,21.9 10.95,26.4 10.55,4 22.32,-0.8 26.38,-11.4 72.22,-176.1 219.52,-382.6 514.1,-364.8 109.56,6.5 204.05,42.2 280.75,106.7 97,81.6 138,196.8 112,315.7 -28.8,135.1 -136.7,244.7 -281.98,285.7 l -325.42,91.7 c -259.69,73.4 -334.35,280 -319.74,434.6" /><path
         id="path90"
         style="fill:#000000;fill-opacity:1;fill-rule:nonzero;stroke:none"
         d="m 9048.69,12719.2 c 22.73,-51.1 20.29,-99.4 18.26,-142 -3.24,-64.5 -5.27,-106.7 68.98,-140.8 97.79,-44.6 264.16,-31.2 318.12,26 19.07,20.3 20.7,44.2 5.28,73.4 -68.58,129 -226.42,312 -252.39,341.7 -14.61,4.4 -29.62,6.9 -44.23,6.9 -37.33,0 -72.22,-14.2 -96.57,-41 -31.24,-34.1 -37.73,-79.5 -17.45,-124.2 z m 70.2,-319.7 c -99,45.4 -95.76,113.6 -92.51,179.3 2.03,40.2 4.06,81.6 -14.61,123.8 -26.78,59.2 -17.85,122.1 24.75,168.4 45.85,50.3 120.11,66.9 188.68,43 3.25,-0.8 6.49,-2.9 8.52,-5.7 7.71,-8.5 184.62,-209.4 261.72,-353.4 23.53,-44.6 19.48,-87.3 -11.77,-120.5 -41.79,-44.3 -123.76,-65 -205.31,-65 -58.03,0 -116.05,10.6 -159.47,30.1" /><path
         id="path92"
         style="fill:#000000;fill-opacity:1;fill-rule:nonzero;stroke:none"
         d="m 11792.1,2406.7 -2842.01,-170 c -0.4,0 -0.81,0 -1.21,0 -10.55,0 -19.48,8.1 -20.29,19.1 -0.81,11 7.71,20.7 19.07,21.5 l 2841.94,170 c 11.8,0.4 20.7,-7.7 21.1,-19.1 0.8,-10.9 -7.7,-20.6 -18.6,-21.5" /><path
         id="path94"
         style="fill:#000000;fill-opacity:1;fill-rule:nonzero;stroke:none"
         d="m 7945.02,5701.5 c -4.47,10.2 0.4,22.4 10.95,26.4 10.15,4.5 22.32,-0.8 26.38,-10.9 72.22,-176.5 219.92,-382.3 514.1,-365.2 109.56,6.5 204.1,42.6 280.38,106.7 97.39,81.5 137.96,196.8 112.4,316.1 -28.81,134.7 -137.15,244.2 -282.01,285.2 l -325.42,91.7 c -259.69,73.5 -334.35,280 -319.74,434.6 17.04,174.1 152.57,359.9 417.13,381.8 l 17.85,1.2 c 236.96,15.1 361.53,-70.6 424.43,-144.8 70.19,-82.8 97.79,-194 73.85,-297.4 -2.44,-11 -13.39,-17.9 -24.35,-15.5 -10.96,2.5 -17.85,13.4 -15.42,24.4 21.1,91.3 -3.24,189.5 -64.92,262.1 -57.21,67.4 -170.83,144.5 -390.75,130.7 l -17.04,-1.2 c -241.84,-19.9 -365.19,-187.9 -380.2,-344.9 -13.39,-139.2 54.37,-325.1 290.12,-391.6 l 325.42,-92.1 c 159.46,-45.1 278.76,-166 310.81,-315.7 28.81,-134.7 -17.04,-264.2 -125.78,-355.4 -83.59,-70.2 -185.84,-109.2 -304.32,-116.5 -12.99,-0.8 -25.97,-1.2 -38.55,-1.2 -292.56,0 -441.47,210.6 -515.32,391.5" /><path
         id="path96"
         style="fill:#000000;fill-opacity:1;fill-rule:nonzero;stroke:none"
         d="m 7936.09,12002.6 c -73.85,19.1 -120.92,38.6 -151.75,183.8 -55.19,263 -12.18,345.8 124.57,515.4 41.79,51.5 60.05,93.7 76.68,131 34.09,77.5 58.84,133.5 251.58,179.4 311.62,74.2 411.44,-0.8 536.42,-249.2 36.92,-72.6 60.86,-130.2 81.96,-180.9 47.88,-115.3 85.62,-206.2 243.86,-400.5 75.88,-93.3 140.4,-141.6 187.06,-176.5 103.88,-77.9 130.66,-110.8 57.21,-338.4 -58.02,-179.8 -91.29,-250 -126.59,-324.2 -30.84,-65.4 -62.9,-132.7 -114.02,-282 -73.85,-214.7 -119.3,-282.5 -213.03,-282.5 -44.63,0 -100.22,15.1 -174.88,37.4 l -21.51,6.1 c -49.91,15 -103.87,25.1 -155.81,35.3 -196.8,37.7 -400.08,76.3 -436.6,360.3 -20.29,158.2 30.43,265.3 70.6,351.8 51.13,108.3 84.4,179.7 -21.91,299 -91.3,102.7 -159.06,120.5 -213.84,134.7 z m -111.99,192 c 27.19,-127.8 60.87,-136.8 122.54,-152.6 56.4,-15 133.9,-34.9 233.72,-146.9 124.16,-139.2 79.94,-233.7 28.4,-343.3 -40.17,-86 -86.02,-183 -66.95,-329.9 32.46,-254.4 204.51,-287.2 403.33,-325.4 53.16,-10.1 107.94,-20.7 160.28,-36.1 l 21.1,-6.1 c 215.86,-64.1 238.18,-70.6 338,219.1 52.34,151.8 84.4,220.4 116.05,286.5 34.49,73 67.35,142 124.57,319.3 67.76,210.2 46.66,226.1 -43.01,293.4 -48.29,36.1 -114.84,86.4 -193.96,183.4 -162.3,198.8 -200.85,292.2 -249.95,410.7 -21.1,49.9 -44.63,106.7 -80.75,178.1 -118.48,234.9 -201.25,297 -490.97,228 -173.26,-41.4 -191.11,-81.9 -223.98,-156.2 -16.64,-37.7 -36.93,-84.4 -81.97,-140.4 -128.22,-158.6 -170.01,-226.8 -116.45,-481.6" /><path
         id="path98"
         style="fill:#000000;fill-opacity:1;fill-rule:nonzero;stroke:none"
         d="m 7865.49,9158.2 c -16.23,16.3 -391.97,402.1 -493.82,820.9 -98.6,404.1 145.67,869.1 156.22,888.6 0.41,0.4 0.82,0.8 1.22,1.6 0.81,1.3 1.62,2.1 2.84,3.3 0.81,0.8 1.62,1.6 2.84,2 0.81,0.8 2.03,1.6 3.25,2 1.22,0.5 2.43,0.9 4.06,1.3 0.4,0 1.21,0.4 2.02,0.4 0.41,0 0.82,0 1.63,0 1.21,0 2.43,-0.4 3.65,-0.4 1.62,-0.4 3.25,-0.8 4.46,-1.3 0.41,-0.4 0.81,-0.4 1.22,-0.4 3.65,-2 395.62,-205.7 519.38,-729.1 110.77,-467.1 -165.15,-963.7 -176.92,-984.8 -0.4,-0.4 -0.81,-0.8 -1.21,-1.2 -1.22,-1.6 -2.84,-3.7 -4.47,-4.9 -0.81,-0.8 -2.03,-1.2 -2.84,-1.6 -1.21,-0.4 -2.03,-1.2 -3.24,-1.6 -0.81,-0.4 -1.63,-0.4 -2.44,-0.4 -0.4,0 -0.4,-0.4 -0.81,-0.4 -0.81,0 -2.03,0 -2.84,0 -3.65,0 -7.3,1.2 -10.55,3.2 -0.81,0.4 -1.22,0.8 -2.03,1.2 -0.4,0.8 -1.22,0.8 -1.62,1.6 z m -296.21,1662.5 c 12.99,-141.7 57.62,-626.6 92.11,-801.4 34.9,-177.4 176.91,-643.6 223.17,-793.7 64.11,131.1 239.4,537.6 150.54,912.2 -98.6,416.3 -371.28,622.4 -465.82,682.9 z m 52.35,-809.5 c -32.87,166.7 -73.85,596.8 -89.68,770.9 -63.3,-142.8 -194.76,-491.4 -120.92,-793.3 75.07,-307.9 310.01,-606.2 422.4,-735.2 -55.59,180.6 -178.94,590 -211.8,757.6" /><path
         id="path100"
         style="fill:#000000;fill-opacity:1;fill-rule:nonzero;stroke:none"
         d="m 7095.76,13259.3 c 42.6,775 412.25,1465.2 973.83,1937.1 4.06,4.5 7.71,8.5 11.36,11.8 2.03,1.6 4.46,2.8 6.9,3.6 181.37,149.8 382.23,276.8 598.5,376.6 1.62,1.6 2.84,2.8 4.87,3.6 2.84,1.2 5.68,2.1 8.11,2.4 350.58,160.3 740.52,250.4 1151.15,250.4 342.92,0 671.12,-62.9 974.62,-176.9 3.3,-0.4 6.9,-1.6 9.8,-3.7 101.8,-38.5 200.4,-83.1 295.8,-132.6 5.2,-0.8 9.7,-3.3 12.9,-6.5 223.6,-118.5 428.5,-266.2 610.3,-438.3 2.9,-0.8 5.3,-2.4 7.7,-4.8 0.8,-0.8 6.1,-6.5 13.4,-15 514.1,-497.1 834.3,-1190.6 834.3,-1957 0,-900.8 -441.5,-1701 -1121.2,-2199.7 -5.2,-4.4 -9.3,-8.1 -12.1,-10.1 -4.1,-2.9 -7.7,-4.9 -11.8,-6.5 -174.5,-125.4 -364.4,-230.9 -566.4,-313.7 -2.9,-2.4 -6.9,-3.6 -11.4,-4 -320.2,-129.1 -669.5,-200.9 -1035.92,-200.9 -217.08,0 -428.48,25.6 -631.37,73.1 h -0.4 c -1.22,0 -2.03,0.8 -3.25,0.8 -1216.07,285.2 -2123.76,1369.4 -2123.76,2661 0,49.5 1.62,99 4.06,147.7 0,0.8 0,1.2 0,1.6 z m 58.43,-3.7 c 179.75,-112.4 288.49,-180.1 465.41,-82.7 200.85,110.3 357.88,139.5 560.36,102.6 41.38,-7.3 83.58,-18.2 124.16,-28.4 103.06,-26.4 200.04,-51.1 254.01,-15.8 24.34,16.2 39.36,44.6 46.25,87.6 14.21,89.7 -14.2,117.7 -49.9,153 -41.39,41.4 -88.87,88.1 -70.2,227.6 15.82,121.4 44.23,180.6 72.22,237.8 30.03,62.1 58.43,120.9 69.8,260.1 10.95,139.2 -13.8,180.2 -38.15,220.3 -21.5,36.2 -44.22,73.1 -35.3,170.1 6.9,73 31.65,123.3 51.13,163.5 34.08,70.2 52.75,109.1 -45.45,210.6 -89.67,92.9 -215.86,67.3 -317.3,46.6 -80.75,-16.2 -150.54,-30.4 -178.95,23.2 -17.04,32 -22.72,61.2 -21.5,86.4 -520.6,-461.4 -861.03,-1117.5 -903.64,-1851.9 z m 305.54,-170 c -109.56,0 -206.54,60.1 -324.62,134.3 -1.62,-36.5 -2.84,-73 -2.84,-109.9 0,-1267.2 887,-2332 2077.92,-2618 88.86,131 164.74,230.4 382.63,159.4 119.7,-38.9 166.37,-8.9 230.88,32.5 41.8,26.4 88.86,56.8 163.12,73.9 168.78,39.3 219.88,17 331.88,-32.5 15.9,-6.9 33.3,-14.6 52.4,-22.7 137.1,-58.5 458.5,-82.8 507.6,-86.5 188.3,76.7 366.4,174.1 531.1,288.5 -6.9,4.9 -13.8,10.2 -20.7,15.9 -40.5,32.4 -108.7,87.2 -265.7,126.6 -226.9,57.2 -241.1,114 -279.6,265.7 -10.6,41.4 -22.3,88.1 -40.6,145.3 -45,139.6 -126.6,185 -239.4,247.5 -95.7,53.2 -215,119.3 -346.9,265.4 -210.2,232.1 -180.6,298.2 -93.7,425.6 28.8,41.8 61.6,89.7 90,156.7 26.4,62 48.3,109.5 66.2,147.7 57.2,121.3 74.2,158.2 74.2,334.7 0,158.7 56.8,202.5 138.8,217.9 27.2,5.3 57.6,7.3 89.3,9.7 30.4,2.1 61.6,4.5 95.3,9.4 102.3,15 120.1,-24.4 134.3,-82 5.7,-22.7 11.8,-46.3 27.6,-69 31.7,-45 121.3,-5.2 200.5,29.7 29.6,12.9 57.2,25.5 82.7,33.6 61.7,20.7 224.4,50.4 402.6,-112.4 49.5,-45.4 73,-85.2 91.7,-117.2 36.5,-62.1 58.8,-99.4 244.2,-127 305.2,-45.5 273.5,-273.5 240.2,-515 l -2.4,-17.4 c -15,-108.3 -56.4,-193.1 -96.6,-275.5 -51.9,-107.1 -101,-208.2 -77.1,-344.1 28.4,-159.9 -131.4,-406.2 -269,-578.6 559.6,493.8 913,1212.8 913,2012.2 0,694.2 -266.2,1328 -703.2,1806.4 8.5,-24.7 13.4,-50.3 12.2,-75.5 -1.6,-38.5 -17.5,-71.4 -47.1,-96.9 -125.8,-110 -196,-221.2 -289.7,-458.1 -77.5,-196.8 -176.5,-220.8 -290.5,-248.8 -37,-8.9 -74.7,-18.2 -114.5,-33.6 -161.5,-64.1 -340.4,-323.4 -381.4,-495.5 -19.9,-84.4 -99.8,-155.8 -213.4,-191.1 -19.5,-6.1 -39,-10.5 -58.4,-13.8 -28,-5.3 -55.6,-7.7 -82.8,-7.7 -93.3,0 -179.8,28.8 -239.8,83.2 -91.3,82.3 -269.04,155 -441.08,225.6 -137.15,56 -266.59,109.1 -341.25,163.1 -103.47,75.5 -91.7,202.5 -80.34,325.4 8.11,88.5 16.63,179.8 -13.8,258.1 -77.5,196.8 -147.29,422.4 3.25,605.4 149.32,182.6 305.94,169.6 565.23,148.5 139.58,-11.8 253.59,-84 345.29,-142 81.2,-51.5 145.3,-92.5 187.9,-67 52.3,31.3 58,71.4 66.9,133.1 6.9,50.3 16.3,113.6 57.2,185.1 85.3,147.7 303.6,297 534,316.4 -73.4,35.8 -148.5,67.8 -225.2,97 -221.5,-30.8 -323.8,-123.7 -414.3,-205.7 -38.5,-35.3 -75,-68.2 -117.6,-94.5 -84,-51.2 -164,-21.1 -256.5,14.2 -79.91,30 -170.39,64.1 -289.28,59.6 -112.4,-4 -216.27,-44.6 -316.49,-83.2 -103.47,-40.5 -202.89,-79.1 -307.98,-79.1 -29.62,0 -59.65,3.2 -90.48,10.1 -183.41,41.8 -271.05,198.1 -312.85,273.5 -5.27,9.4 -10.95,19.9 -15.42,26.8 -216.27,-101 -417.12,-229.2 -597.69,-380.2 -12.57,-17 -33.67,-57.6 -1.62,-118.1 14.2,-26.8 70.2,-15.4 135.12,-2.4 105.09,21.5 249.55,50.7 354.64,-58.4 112.39,-116.1 93.32,-172.9 52.75,-256.1 -19.07,-39.7 -40.99,-84.4 -47.07,-150.1 -7.71,-83.2 9.33,-112 29.62,-145.3 25.97,-43 55.99,-92.1 43.42,-244.2 -11.77,-146.9 -43.02,-211.8 -73.45,-274.7 -26.37,-54.4 -53.56,-110.4 -68.57,-225.2 -15.83,-119.7 20.29,-155.4 58.83,-193.6 38.55,-38.5 78.72,-77.9 61.27,-188.3 -8.52,-54.7 -29.62,-92.5 -64.11,-115.2 -68.98,-45 -174.47,-17.8 -286.06,10.6 -40.17,10.1 -81.96,20.6 -121.73,28 -192.33,34.4 -341.65,6.9 -533.58,-98.6 -65.73,-36.2 -124.16,-51.6 -179.34,-51.6 z m 1288.29,2456.1 c 39.36,-69.8 120.52,-215.9 286.47,-253.2 127.82,-29.2 247.92,17.5 374.93,67 103.47,40.1 210.18,81.5 329.48,86 127,4.9 226.01,-32.5 305.1,-62.5 89.3,-33.7 153.8,-58 220.8,-17.1 39.7,24 74.6,56 112,89.7 84.4,76.7 178.9,162.7 364.7,203.3 -279.1,96.2 -579,149.3 -891.02,149.3 -397.65,0 -775.41,-85.6 -1115.85,-238.6 4.06,-6.8 8.52,-15 13.39,-23.9 z m 570.1,-611.1 c -136.34,-166.3 -69.79,-379 3.25,-565.2 34.08,-86.8 25.15,-183.4 16.23,-276.7 -11.36,-121.4 -21.1,-226.9 64.11,-288.5 70.6,-51.2 197.61,-103.5 332.32,-158.7 175.69,-71.4 357.07,-145.6 453.27,-232.9 79.1,-71.8 213.4,-92.5 341.6,-52.7 99.8,30.8 169.6,91.3 186.3,161.5 43.8,185.4 230.8,454.4 405.7,523.8 42.6,16.6 81.6,26.4 119.7,35.3 107.6,26.4 192.8,47.1 262.6,224 95.3,241 171.2,360.7 300.6,473.9 21.1,18.7 32.1,41 33.3,68.6 3.7,74.6 -63.7,162.7 -92.5,196.8 -184.6,178.1 -394.8,330.7 -624.5,451.6 -241.4,13 -486.5,-143.6 -575.4,-297.8 -37.3,-64.6 -45.4,-121 -52.3,-170.5 -9.3,-65.3 -17.4,-121.3 -86,-162.3 -64.5,-38.1 -138,8.6 -230.9,67.4 -87.6,56 -197.2,125.4 -326.64,135.9 -262.94,21.5 -394.81,32.5 -530.74,-133.5 z m 262.12,-4317.7 c -183.4,60 -244.27,-8.9 -327.85,-130.7 192.74,-43 392.78,-66.5 598.09,-66.5 331.12,0 648.42,59.2 942.22,167.2 -119.7,10.9 -328.7,36.1 -437.4,82.3 -19.5,8.2 -37,15.9 -53.2,23.2 -109.6,48.3 -150.5,66.5 -306.35,30 -67.36,-15.8 -109.56,-42.6 -150.14,-69 -68.57,-43.4 -127.41,-81.1 -265.37,-36.5 z m 576.56,1760.6 c -75.8,-111.2 -107.5,-157 90.1,-375.3 127.4,-140.8 243.5,-205.3 336.8,-257.3 116,-64.5 208.2,-115.2 258.1,-270.2 18.6,-58.4 31.2,-107.9 41.3,-147.7 37,-146.1 46.7,-185.4 250.4,-236.6 165.6,-41.4 240.6,-101.8 281.2,-134.3 19.9,-16.2 27.2,-21.1 31.6,-21.5 5.3,4.1 10.6,7.7 16.3,11.4 79.5,74.2 461.3,507.6 422.4,727.1 -26.8,149.3 25.5,256 80.3,369.2 39,79.2 78.7,161.5 92.9,263.4 l 2.5,17.4 c 33.2,240.2 59.2,429.7 -206.2,469.1 -195.1,28.8 -229.2,72.6 -273,146.9 -18.3,31.2 -39,66.5 -84,107.5 -162.3,148.5 -308,122.1 -362.8,103.9 -23.5,-7.7 -50.3,-19.5 -78.7,-32.1 -93.3,-41.4 -199.2,-88 -250.4,-16.2 -20.2,28.8 -27.5,58.8 -33.6,82.8 -11,45.4 -15,62.5 -88.9,51.5 -35.3,-5.3 -69,-7.7 -98.6,-9.7 -126.6,-9 -190.3,-13.4 -190.3,-187.1 0,-185.4 -19.5,-227.6 -77.9,-352.2 -17.9,-37.7 -39.8,-84.8 -65.7,-146.1 -30.1,-70.6 -65.4,-122.5 -93.8,-163.9" /><path
         id="path102"
         style="fill:#000000;fill-opacity:1;fill-rule:nonzero;stroke:none"
         d="m 7398.05,5846.4 -522.22,-31.7 c -34.89,-2 -59.24,-3.2 -76.69,-4 l -148.51,-596.9 c -2.43,-8.9 -10.55,-15 -19.88,-15 -1.62,0 -3.24,0 -4.87,0.4 -10.95,2.8 -17.45,13.8 -14.61,24.8 l 147.7,593.6 c -1.21,2.8 -1.62,6.1 -2.03,10.5 -0.4,6.1 1.22,13.4 9.34,17.9 l 255.63,1026.2 c 2.03,8.5 9.74,14.6 18.66,15.4 8.93,0 17.04,-4.9 19.88,-13.4 l 586.74,-1583.7 c 4.06,-10.5 -1.62,-22.3 -11.77,-26 -10.55,-4 -22.32,1.3 -26.37,11.8 z m -588.76,5.3 c 114.83,6.9 491.78,29.6 574.15,34.5 l -338,912.1 -236.15,-946.6" /><path
         id="path104"
         style="fill:#000000;fill-opacity:1;fill-rule:nonzero;stroke:none"
         d="m 10153.2,2865.7 -4351.83,-304 c -0.81,0 -1.22,0 -1.62,0 -10.55,0 -19.48,8.2 -20.29,19.1 -0.81,11 7.71,20.7 19.07,21.5 l 4351.77,303.9 c 11,0.4 20.7,-7.7 21.5,-19 0.9,-11 -7.7,-20.7 -18.6,-21.5" /><path
         id="path106"
         style="fill:#000000;fill-opacity:1;fill-rule:nonzero;stroke:none"
         d="m 5399.26,12563 c 25.97,-15.4 640.29,-378.6 719.82,-772.6 85.62,-425.2 59.25,-930 56,-986.4 23.53,-51.5 266.59,-557.1 910.94,-1104.5 1038.75,-882.5 1936.71,-959.2 1945.63,-960 10.96,-0.8 19.48,-10.6 18.67,-21.5 -0.81,-11 -9.74,-19.1 -20.29,-19.1 -0.41,0 -0.81,0 -1.62,0 -8.93,0.8 -919.06,77.9 -1968.77,969.8 -650.44,552.6 -896.73,1064.7 -921.89,1119.1 -44.23,36.1 -461.35,380.2 -726.72,741.7 -247.92,337.2 -49.91,994.1 -41.39,1021.7 0,0.8 0.81,1.2 0.81,2.1 0.81,1.6 1.62,3.2 2.84,4.4 0.81,0.8 1.22,1.6 2.03,2.5 1.62,1.2 2.84,2 4.46,2.8 0.81,0.4 1.22,0.8 1.63,1.2 0.81,0 1.21,0 1.62,0 0.41,0.4 0.81,0.8 1.62,0.8 1.22,0.4 2.44,0 3.65,0 0.82,0 2.03,0.4 3.25,0.4 2.03,-0.4 3.65,-1.2 5.68,-2 0.41,-0.4 1.22,-0.4 2.03,-0.4 z M 6085,10885.2 c -145.26,269.4 -556.3,1057 -696.7,1578.8 -44.22,-182.6 -132.68,-654.1 55.59,-910.5 204.1,-278 499.09,-546.2 641.11,-668.3 z m -664.64,1616.9 c 136.74,-538 588.76,-1392.1 716.98,-1628.7 6.09,160.3 11.77,561.6 -58.02,908.9 -64.52,319.3 -518.16,630.2 -658.96,719.8" /><path
         id="path108"
         style="fill:#000000;fill-opacity:1;fill-rule:nonzero;stroke:none"
         d="m 5996.54,10077.3 c -414.28,-20.3 -663.83,-231.7 -751.06,-320.6 161.08,19.5 632.58,75.1 814.36,77.5 174.89,2.1 620.01,-38.1 796.52,-54.7 -135.12,95.3 -490.98,316.9 -859.82,297.8 z m -818.83,-334.8 c 11.36,14.6 275.52,348.6 816.8,375.4 484.08,23.9 926.77,-334.4 945.03,-349.8 0.4,-0.4 0.81,-0.8 1.21,-1.2 1.22,-1.6 2.44,-2.9 3.25,-4.9 0.81,-0.8 1.22,-1.6 1.62,-2.4 0.81,-2 0.81,-4.1 1.22,-6.1 0,-0.8 0.41,-1.2 0.41,-2 0,-0.4 -0.41,-0.4 -0.41,-0.4 0,-0.4 0.41,-0.4 0,-0.9 0,-2.8 -0.81,-5.2 -2.43,-7.7 0,-0.4 -0.82,-0.8 -0.82,-1.2 -1.62,-2 -2.84,-3.6 -4.86,-5.3 -0.41,0 -0.41,-0.4 -0.82,-0.4 -18.66,-12.5 -469.46,-309.6 -903.22,-333.9 -14.61,-0.8 -29.63,-1.2 -44.23,-1.2 -402.93,0 -792.46,300.2 -809.1,313.6 -0.4,0 -0.4,0 -0.4,0.4 -1.62,1.3 -2.84,2.9 -4.06,4.5 -0.4,0.4 -0.81,0.8 -0.81,1.2 -1.22,2 -2.03,4.5 -2.43,6.9 v 0.4 c 0,0 0,0 0,0.4 -0.41,2.5 0,4.9 0.4,7.3 0.81,2.5 2.03,4.5 3.25,6.1 0,0.4 0,0.8 0.4,1.2 z m 69.79,-26.3 c 115.24,-80 454.46,-292.2 784.75,-273.9 340.44,19 702.78,217.5 833.03,295.8 -165.55,15.4 -629.34,57.6 -804.63,55.6 -178.53,-2.5 -655.71,-58.5 -813.15,-77.5" /><path
         id="path110"
         style="fill:#000000;fill-opacity:1;fill-rule:nonzero;stroke:none"
         d="m 5277.13,5137.1 -53.16,808.7 v 0.4 l -53.15,802.6 c -0.41,11 7.3,20.3 18.25,21.5 27.6,2.9 682.9,67 936.1,-144 59.65,-49.5 92.92,-111.2 98.19,-183 8.53,-105.9 -23.93,-198 -95.76,-273.5 -220.32,-232.5 -745.38,-244.3 -861.84,-243.1 L 5317.7,5140 c 0.81,-11.4 -7.71,-21.1 -19.07,-21.9 -0.4,0 -0.81,0 -1.22,0 -10.55,0 -19.47,8.5 -20.28,19 z M 6099.2,6595 c -216.68,181 -775.01,145.7 -886.59,136.8 l 50.31,-764.5 c 0.81,0 1.22,0 2.03,0 108.34,0 626.09,11.8 833.44,230.5 63.7,66.9 92.11,148.5 84.8,242.6 -4.86,60.9 -32.46,111.6 -83.99,154.6" /><g
         transform="scale(1.11252)"
         id="g112"><path
           id="path114"
           style="fill:#000000;fill-opacity:1;fill-rule:nonzero;stroke:none"
           d="m 3990.59,1931.02 c -218.1,182.37 -363.63,448.98 -381.86,750.54 L 2889.86,14515.4 c -35.74,585.7 415.79,1092.7 1006.64,1130.3 l 10288.8,653.9 c 11,0.4 18.6,-6.9 19.3,-16.7 l 884.5,-13035.24 c 0.4,-2.6 0,-5.12 -1.1,-7.28 0,-0.71 -0.7,-1.53 -0.7,-1.88 -1.1,-1.8 -1.9,-3.24 -2.9,-4.32 -0.4,-0.36 -0.4,-0.36 -0.4,-0.72 -2.9,-2.97 -270.6,-271 -270.6,-507.76 0,-7.64 0,-15.64 0.8,-23.28 v -0.36 c 18.9,-243.68 267.6,-512.08 270.2,-514.69 4.7,-5.48 6.2,-12.76 3.6,-19.68 -2.9,-6.57 -9.1,-10.97 -16,-11.33 L 4734.63,1678.62 c -16.78,-0.72 -33.55,-1.08 -50.33,-1.08 -258.58,0 -498.94,92.94 -686.77,247.63 -2.93,1.44 -5.11,3.24 -6.94,5.85 z m -345.39,752.79 c 16.78,-277.93 145.53,-524.85 339.92,-699.94 3.29,99.95 53.99,341.03 445.33,480.71 482.9,172.49 10002.55,760.79 10621.15,798.72 l -881.9,12998.8 -10271.01,-652.9 c -570.43,-36.1 -1007,-525.9 -972.36,-1091.6 z M 15026,3225.37 C 14284.9,3179.44 4909.34,2596.98 4442.86,2430.33 4028.9,2282.56 4016.49,2028.36 4021.23,1961.31 l 1417.69,99.5 c 10.57,1.08 18.96,-6.92 19.69,-16.72 0.73,-10.25 -6.93,-18.96 -17.14,-19.77 l -1387.41,-97.35 c 188.2,-142.56 425.63,-223.19 678.75,-211.86 l 10299.39,475.95 c -36.1,42.24 -103.2,126.56 -159.7,228.66 l -3025,-181.29 c -0.4,0 -0.7,-0.36 -1.1,-0.36 -9.5,0 -17.5,7.64 -18.2,17.16 -0.4,10.25 7.2,18.97 17,19.33 l 3008.7,180.58 c -36.1,71.1 -64.9,148.76 -74.1,226.42 l -2409.4,-169.52 c -0.3,0 -0.7,0 -1,0 -9.5,0 -17.5,7.28 -18.3,16.72 -0.7,10.24 6.9,18.96 16.8,19.68 l 2409.8,169.26 c -2.3,82.42 25.1,166.65 63.4,243.68 -104.3,-10.61 -451.1,-33.26 -1626.6,-109.13 -0.4,0 -0.8,0 -1.1,0 -9.9,0 -17.5,7.29 -18.3,16.81 -0.7,10.25 7,18.97 16.8,19.33 1241.9,80.63 1591.3,104.27 1648.2,108.67 55.8,99.95 125.8,183.82 165.9,228.31" /></g></g></g></svg>